<?xml version="1.0" encoding="UTF-8"?>
<svg width="85px" height="48px" viewBox="0 0 85 48" version="1.1" xmlns="http://www.w3.org/2000/svg" xmlns:xlink="http://www.w3.org/1999/xlink">
    <!-- Generator: Sketch 51.3 (57544) - http://www.bohemiancoding.com/sketch -->
    <title>icon_hosting_ssl</title>
    <desc>Created with Sketch.</desc>
    <defs></defs>
    <g id="Demo" stroke="none" stroke-width="1" fill="none" fill-rule="evenodd">
        <g id="Desktop-HD-Copy-2" transform="translate(-759.000000, -1555.000000)" stroke="#9013FE" stroke-width="2">
            <g id="Battle-ready-hosting" transform="translate(731.000000, 1315.000000)">
                <g id="Benefits" transform="translate(0.000000, 200.000000)">
                    <g id="SSL">
                        <g id="icon_hosting_ssl" transform="translate(29.000000, 41.000000)">
                            <g id="Group">
                                <path d="M18,29 C18,29.553 17.553,30 17,30 C16.448,30 16,29.553 16,29 C16,28.447 16.448,28 17,28 C17.553,28 18,28.447 18,29 L18,29 Z" id="Stroke-69"></path>
                                <path d="M17,30 L17,36" id="Stroke-71" stroke-linecap="round"></path>
                                <polygon id="Stroke-73" points="34 18 0 18 0 46 34 46"></polygon>
                                <path d="M6,11 C6,4.925 10.925,0 17,0 C23.075,0 28,4.925 28,11 L28,18 L6,18 L6,11 L6,11 Z" id="Stroke-75"></path>
                            </g>
                            <circle id="Oval" fill-rule="nonzero" cx="47" cy="13" r="4"></circle>
                            <circle id="Oval" fill-rule="nonzero" cx="47" cy="31" r="4"></circle>
                            <g id="Group-19" transform="translate(53.000000, 2.000000)" fill-rule="nonzero" stroke-linecap="square">
                                <path d="M1,43.0833333 L19,0.916666667" id="Line"></path>
                                <path d="M11,43.0833333 L29,0.916666667" id="Line"></path>
                            </g>
                        </g>
                    </g>
                </g>
            </g>
        </g>
    </g>
</svg>